PathFileType	4	(X/Y/Z)	s10c0101.trc
DataRate	CameraRate	NumFrames	NumMarkers	Units	OrigDataRate	OrigDataStartFrame	OrigNumFrames
200	200	4	49	mm	200	1250	2000
Frame#	Time	racr			lacr			c7			jug			rlel			rdr			llel			ldr			s2			lic			ric			lasi			rasi			rpsi			lpsi			rgt			lgt			rth1			rth2			rth3			rth4			rlfc			rmfc			rsh1			rsh2			rsh3			rsh4			rlmal			rmmal			rcal			rtoe			rmt5			lth1			lth2			lth4			lth3			llfc			lmfc			llmal			lcal			lmt5			lsh1			lsh2			lsh3			lsh4			ltoe			SBIKE			LBIKE			RBIKE			
		X1	Y1	Z1	X2	Y2	Z2	X3	Y3	Z3	X4	Y4	Z4	X5	Y5	Z5	X6	Y6	Z6	X7	Y7	Z7	X8	Y8	Z8	X9	Y9	Z9	X10	Y10	Z10	X11	Y11	Z11	X12	Y12	Z12	X13	Y13	Z13	X14	Y14	Z14	X15	Y15	Z15	X16	Y16	Z16	X17	Y17	Z17	X18	Y18	Z18	X19	Y19	Z19	X20	Y20	Z20	X21	Y21	Z21	X22	Y22	Z22	X23	Y23	Z23	X24	Y24	Z24	X25	Y25	Z25	X26	Y26	Z26	X27	Y27	Z27	X28	Y28	Z28	X29	Y29	Z29	X30	Y30	Z30	X31	Y31	Z31	X32	Y32	Z32	X33	Y33	Z33	X34	Y34	Z34	X35	Y35	Z35	X36	Y36	Z36	X37	Y37	Z37	X38	Y38	Z38	X39	Y39	Z39	X40	Y40	Z40	X41	Y41	Z41	X42	Y42	Z42	X43	Y43	Z43	X44	Y44	Z44	X45	Y45	Z45	X46	Y46	Z46	X47	Y47	Z47	X48	Y48	Z48	X49	Y49	Z49	
1250	6.2500	375.125922	1268.540650	-8.084844	442.020672	1215.641899	-339.275104	379.528267	1310.661023	-192.436425	368.703114	1165.360449	-167.673115	438.900181	1004.680668	30.520524	635.447119	886.108813	-51.156198	435.817700	970.302734	-480.621410	627.218365	879.677106	-414.425583	-122.064617	1089.514464	-259.142955	58.259374	1096.112499	-392.102013	33.056464	1140.450035	-91.990301	79.000263	1015.245715	-347.541923	43.981322	1054.455526	-105.199092	-93.714352	1151.265316	-209.432544	-72.250330	1150.984618	-317.119060	-54.561797	1026.884589	-52.971167	-36.838578	958.972124	-430.244135	82.867907	963.405174	-36.375369	169.090225	966.922499	-56.911207	245.412642	928.386024	-59.645139	173.283970	1000.789805	-73.262661	355.956370	892.295848	-91.813909	332.830443	868.904099	-214.059034	275.935174	812.941235	-52.468962	234.761821	734.442448	-61.517261	163.883146	686.211029	-57.466088	256.052404	717.233096	-88.654748	88.099456	611.240307	-62.295391	113.707159	607.951208	-145.299191	34.520415	628.063213	-109.354877	196.315979	445.190713	-104.442515	120.022075	486.073305	-44.517397	23.887449	847.659366	-435.752075	84.724875	787.436215	-420.724702	115.211475	806.849688	-412.572737	106.474740	702.257294	-406.524762	163.961339	612.934074	-383.042558	153.901252	605.512114	-268.518885	101.600194	244.190793	-380.989560	51.851855	216.795372	-339.875547	218.459484	153.640219	-404.631681	117.360872	499.259640	-416.001762	139.103402	416.014286	-401.310278	115.133261	330.404466	-397.433543	168.199095	418.816005	-376.787479	301.972270	179.381259	-349.883235	-218.297430	833.862347	-215.621397	-103.972723	80.175095	-418.374453	-103.946834	80.510793	-18.314897	
1251	6.2550	376.565423	1269.067947	-9.100845	441.293455	1215.992941	-339.886118	380.284874	1310.801975	-192.529636	369.095799	1165.687811	-166.722537	439.203731	1004.901453	31.888175	635.161766	886.213918	-50.855101	434.378657	969.218146	-479.478254	627.184045	879.635143	-414.135769	-120.937486	1089.903103	-259.553987	60.256812	1096.148744	-390.504310	31.771886	1143.134252	-90.545095	79.829238	1015.830867	-345.037566	42.712650	1056.833229	-104.152673	-93.147892	1152.822791	-209.158748	-70.898356	1151.939146	-317.779681	-57.360613	1030.563196	-53.485521	-35.713504	959.630949	-429.860097	81.871358	968.320257	-35.340408	167.775482	973.476794	-56.579696	244.986079	936.917396	-58.304244	171.106992	1007.081432	-73.122138	357.206694	904.157032	-90.780608	335.936755	880.255638	-215.007334	280.209070	823.167420	-52.912833	241.039624	743.638559	-61.755847	170.935085	693.789606	-57.978101	262.874156	726.734843	-88.602098	96.058878	615.040321	-62.806951	122.150357	613.049589	-145.581828	41.492833	630.541432	-109.772346	206.771845	450.518617	-104.785257	129.943591	490.036571	-44.914594	23.531683	849.075399	-435.165790	83.449822	787.825037	-420.675633	114.086558	806.584563	-411.808437	103.828749	702.133097	-407.482195	158.177634	611.364550	-383.344378	147.328733	603.560963	-268.852165	93.484771	243.245980	-381.876698	43.176908	216.190163	-339.965437	208.185924	149.581981	-403.924537	110.982081	497.876466	-416.360394	131.923367	414.265910	-401.708191	107.122272	328.864562	-397.769619	161.027412	416.868283	-377.137200	293.452749	173.404085	-348.447935	-218.259485	834.054070	-215.297275	-103.985940	80.176015	-418.388109	-103.946500	80.497610	-18.322144	
1252	6.2600	378.913493	1269.236593	-9.999463	440.766114	1216.452318	-340.557751	381.412590	1311.086242	-192.380913	370.024005	1166.081453	-165.893474	439.691596	1004.965762	33.121534	634.863397	886.389403	-50.612063	432.878054	968.195183	-478.562452	627.206180	879.608409	-413.875750	-121.523782	1091.293885	-259.262301	61.890421	1096.268264	-388.779034	30.559847	1145.680727	-88.634806	80.559200	1016.307511	-342.749437	41.692985	1059.018204	-103.059486	-93.309149	1154.047822	-209.540890	-69.826619	1153.129107	-318.213679	-60.093992	1034.757674	-53.038567	-34.924437	960.385690	-429.045854	80.870787	972.865786	-34.280734	166.477852	979.526363	-56.016322	244.401946	944.689015	-56.939367	169.495556	1013.236912	-72.333973	357.947827	915.799011	-89.155817	338.523706	891.327776	-215.309305	284.198597	832.878147	-53.122115	247.106024	752.332919	-61.647676	178.097182	700.904613	-58.293006	269.503689	736.024872	-88.365301	103.522631	618.354263	-63.434691	130.110256	617.439707	-145.808330	48.768647	632.292007	-110.304244	217.370415	455.509778	-105.061785	139.818004	493.650176	-45.268667	23.081096	850.745503	-434.645996	82.204167	788.639311	-420.654212	113.115609	806.953254	-411.015403	101.422662	702.571936	-408.363835	153.001966	610.079157	-383.882469	141.082460	602.273723	-269.375156	84.930837	242.385804	-382.279142	34.338622	216.235795	-340.097739	198.154621	146.684625	-403.845044	104.984305	496.923911	-416.824116	124.907081	413.231597	-402.142145	99.018024	328.080921	-398.183474	154.044104	415.341377	-377.594356	283.788826	168.933445	-348.356946	-218.257446	833.823639	-215.404947	-104.025150	80.197114	-418.421884	-103.987479	80.507161	-18.347553	
1253	6.2650	380.914368	1269.094366	-10.805020	440.167790	1216.972866	-341.465363	382.581848	1311.351261	-193.260058	370.676485	1166.471101	-166.133764	440.020557	1004.985996	34.092440	634.659063	886.604548	-50.393347	431.526005	967.175889	-477.303862	627.267977	879.647616	-413.628325	-120.447242	1092.568683	-259.616531	63.156261	1096.482042	-387.006877	29.462045	1147.740897	-86.476960	81.134710	1017.079913	-340.827824	40.814002	1060.974226	-101.949531	-92.844212	1156.095960	-207.886135	-68.800318	1154.530165	-318.715160	-61.716628	1038.182572	-53.008147	-34.408215	961.301275	-427.946385	79.865030	977.074429	-33.071730	165.359978	984.886147	-55.182030	243.776669	951.633304	-55.693786	167.941674	1019.238502	-70.971998	358.693231	926.182441	-88.953569	340.930642	901.624105	-215.027910	287.768388	842.054110	-52.982498	252.738731	760.556733	-61.368240	184.795049	707.525651	-58.331266	275.734893	744.380430	-87.875794	110.840560	621.107017	-64.032721	138.852337	621.545211	-145.856821	55.486822	633.007261	-110.690054	228.010448	460.161457	-105.369693	149.673924	496.556514	-45.590004	22.577264	852.613675	-434.243066	81.066301	789.921676	-420.688844	112.020900	807.732697	-410.347004	99.426265	703.478574	-409.117312	148.495107	609.259162	-384.558830	135.495223	601.745828	-269.515998	75.919898	241.985908	-382.282088	25.299532	216.823995	-340.081583	187.918107	144.441324	-403.729985	99.262327	496.568841	-417.283782	118.097383	412.588405	-402.623590	90.974383	327.698788	-398.440947	147.321935	414.409403	-378.253724	273.935476	165.471957	-348.317314	-218.276137	833.836008	-215.271682	-104.060478	80.222775	-418.445820	-104.021101	80.499718	-18.368871	
